<?xml version="1.0" encoding="utf-8"?>
<svg version="1.1" id="Layer_1"
xmlns="http://www.w3.org/2000/svg"
xmlns:xlink="http://www.w3.org/1999/xlink"
width="191px" height="73px"
xml:space="preserve">
<g id="PathID_1" transform="matrix(1, 0, 0, 1, 7.2, 15.7)" opacity="1">
<path style="fill:#A60000;fill-opacity:1" d="M130.25 24.15L83.8 3.55L28.65 24.3L26.9 24.95L1.3 34.55L0.05 31.25L83.2 0L84.55 0.05M132 24.95L84.55 0.05" />
</g>
<g id="PathID_2" transform="matrix(1, 0, 0, 1, 7.2, 15.7)" opacity="1">
</g>
<g id="PathID_3" transform="matrix(1, 0, 0, 1, 27.35, 18)" opacity="1">
<path style="fill:#FFE900;fill-opacity:1" d="M130.25 24.15L83.8 3.55L28.65 24.3L26.9 24.95L1.3 34.55L0.05 31.25L83.2 0L84.55 0.05M132 24.95L84.55 0.05" />
</g>
<g id="PathID_4" transform="matrix(1, 0, 0, 1, 27.35, 18)" opacity="1">
</g>
<g id="PathID_5" transform="matrix(1, 0, 0, 1, 52.55, 17.95)" opacity="1">
<path style="fill:#A60000;fill-opacity:1" d="M130.25 24.15L83.8 3.55L28.65 24.3L26.9 24.95L1.3 34.55L0.05 31.25L83.2 0L84.55 0.05M132 24.95L84.55 0.05" />
</g>
<g id="PathID_6" transform="matrix(1, 0, 0, 1, 52.55, 17.95)" opacity="1">
</g>
<g id="PathID_7" transform="matrix(0.46875, 0, 0, 0.46875, 99.45, 59.3)" opacity="1">
<path style="fill:#000000;fill-opacity:1" d="M3.75 0L3.75 -36.65L11.05 -36.65L19.75 -10.7L21.5 -5.25L23.45 -11.15L32.3 -36.65L38.85 -36.65L38.85 0L34.15 0L34.15 -30.65L23.4 0L19.05 0L8.45 -31.2L8.45 0L3.75 0" />
</g>
<g id="PathID_8" transform="matrix(0.46875, 0, 0, 0.46875, 99.45, 59.3)" opacity="1">
</g>
<g id="PathID_9" transform="matrix(0.46875, 0, 0, 0.46875, 126.05, 59.3)" opacity="1">
<path style="fill:#000000;fill-opacity:1" d="M24.3 -4.3Q22.05 -1.85 19.4 -0.6Q16.8 0.6 13.75 0.6Q8.15 0.6 4.85 -3.15Q2.2 -6.25 2.2 -10.1Q2.2 -13.5 4.35 -16.2Q6.55 -18.95 10.9 -21.05Q8.4 -23.85 7.55 -25.6Q6.75 -27.4 6.75 -29.05Q6.75 -32.35 9.3 -34.8Q11.9 -37.25 15.85 -37.25Q19.6 -37.25 22 -34.9Q24.4 -32.6 24.4 -29.4Q24.4 -24.15 17.4 -20.45L24 -12.1Q25.1 -14.3 25.75 -17.2L30.45 -16.2Q29.2 -11.4 27.15 -8.35Q29.7 -5 32.95 -2.7L29.9 0.85Q27.15 -0.85 24.3 -4.3M15.1 -23.35Q18 -25.1 18.85 -26.4Q19.75 -27.7 19.75 -29.25Q19.75 -31.15 18.55 -32.35Q17.35 -33.55 15.6 -33.55Q13.8 -33.55 12.6 -32.35Q11.4 -31.15 11.4 -29.45Q11.4 -28.6 11.8 -27.65Q12.25 -26.75 13.1 -25.7L15.1 -23.35M21.45 -7.85L13.25 -18.1Q9.6 -15.9 8.3 -14.05Q7.05 -12.2 7.05 -10.4Q7.05 -8.15 8.8 -5.75Q10.55 -3.4 13.8 -3.4Q15.85 -3.4 18 -4.6Q20.15 -5.85 21.45 -7.85" />
</g>
<g id="PathID_10" transform="matrix(0.46875, 0, 0, 0.46875, 126.05, 59.3)" opacity="1">
</g>
<g id="PathID_11" transform="matrix(0.46875, 0, 0, 0.46875, 148.7, 59.3)" opacity="1">
<path style="fill:#000000;fill-opacity:1" d="M30.1 -12.85L34.95 -11.65Q33.4 -5.65 29.45 -2.5Q25.5 0.6 19.75 0.6Q13.85 0.6 10.1 -1.8Q6.4 -4.2 4.45 -8.75Q2.55 -13.35 2.55 -18.6Q2.55 -24.35 4.7 -28.6Q6.9 -32.85 10.9 -35.05Q14.95 -37.3 19.8 -37.3Q25.3 -37.3 29.05 -34.5Q32.8 -31.7 34.3 -26.6L29.5 -25.5Q28.2 -29.5 25.75 -31.3Q23.35 -33.15 19.7 -33.15Q15.5 -33.15 12.65 -31.1Q9.8 -29.1 8.65 -25.65Q7.55 -22.25 7.55 -18.65Q7.55 -13.95 8.9 -10.45Q10.25 -7 13.1 -5.25Q16 -3.55 19.35 -3.55Q23.45 -3.55 26.25 -5.9Q29.1 -8.25 30.1 -12.85" />
</g>
<g id="PathID_12" transform="matrix(0.46875, 0, 0, 0.46875, 148.7, 59.3)" opacity="1">
</g>
<g id="PathID_13" transform="matrix(0.46875, 0, 0, 0.46875, 166, 59.3)" opacity="1">
<path style="fill:#000000;fill-opacity:1" d="M1.7 -13.25Q1.7 -20.65 5.8 -24.2Q9.2 -27.15 14.15 -27.15Q19.6 -27.15 23.1 -23.55Q26.6 -19.95 26.6 -13.65Q26.6 -8.5 25.05 -5.55Q23.5 -2.65 20.55 -1Q17.6 0.6 14.15 0.6Q8.55 0.6 5.1 -2.95Q1.7 -6.55 1.7 -13.25M6.35 -13.25Q6.35 -8.15 8.55 -5.6Q10.75 -3.1 14.15 -3.1Q17.5 -3.1 19.7 -5.6Q21.95 -8.15 21.95 -13.4Q21.95 -18.3 19.7 -20.85Q17.45 -23.4 14.15 -23.4Q10.75 -23.4 8.55 -20.85Q6.35 -18.35 6.35 -13.25" />
</g>
<g id="PathID_14" transform="matrix(0.46875, 0, 0, 0.46875, 166, 59.3)" opacity="1">
</g>
</svg>
